# xmcd CD Database Entry
#
# Track frame offsets:
# 182
# 10517
# 16187
# 25807
# 37005
# 54760
# 63597
# 72587
# 81532
# 87422
# 104642
# 122265
# 129857
# 145852
# 162425
# 178627
#
# Disc length: 2678 seconds
#
# Revision: 2
# Processed by: cddbd v1.4b42PL1 Copyright (c) Steve Scherf et al.
# Submitted via: tcd 2.0b
#
DISCID=d00a7410
DTITLE=L'ensemble Raye - M me en hiver
DYEAR=1900
DGENRE=
TTITLE0=Contenu d'une valise
TTITLE1=En train
TTITLE2=En vacances
TTITLE3=Contenu d'une autre valise
TTITLE4=A ma taie
TTITLE5=Elle court, la bassecour
TTITLE6=Introduction
TTITLE7=Birdless Air
TTITLE8=M me en hiver
TTITLE9=Skaggae
TTITLE10=Un square au printemps
TTITLE11=Renouveau horloger
TTITLE12=Une valse
TTITLE13=Un morceau pour ta f te
TTITLE14=Le discours du Colonel
TTITLE15=Comme un pinson dans l'eau
EXTD=
EXTT0=
EXTT1=
EXTT2=
EXTT3=
EXTT4=
EXTT5=
EXTT6=
EXTT7=
EXTT8=
EXTT9=
EXTT10=
EXTT11=
EXTT12=
EXTT13=
EXTT14=
EXTT15=
PLAYORDER=
